<?xml version="1.0" encoding="utf-8"?>
<!-- Generator: Adobe Illustrator 16.0.0, SVG Export Plug-In . SVG Version: 6.00 Build 0)  -->
<!DOCTYPE svg PUBLIC "-//W3C//DTD SVG 1.1//EN" "http://www.w3.org/Graphics/SVG/1.1/DTD/svg11.dtd">
<svg version="1.1" id="Layer_1" xmlns="http://www.w3.org/2000/svg" xmlns:xlink="http://www.w3.org/1999/xlink" x="0px" y="0px"
	 width="3017.623px" height="1699.787px" viewBox="0 0 3017.623 1699.787" enable-background="new 0 0 3017.623 1699.787"
	 xml:space="preserve">
<g>
	<g>
		<path fill-rule="evenodd" clip-rule="evenodd" fill="none" d="M2,17.998C2,12.666,2,7.332,2,2c1006.541,0,2013.08,0,3019.621,0
			c0,437.278,0,874.557,0,1311.835c-0.744,0.063-1.488,0.127-2.234,0.19c-1.577,0.489-3.195,0.876-4.727,1.481
			c-69.09,27.294-139.489,50.489-211.799,67.702c-38.2,9.096-76.8,16-115.831,20.312c-27.195,3.005-54.526,3.229-81.832,2.266
			c-29.405-1.038-58.199-5.856-85.978-15.913c-28.816-10.432-53.817-26.606-72.646-50.962
			c-22.835-29.537-50.969-52.333-83.807-69.704c-58.484-30.937-121.898-43.053-186.886-49.291c-23.24-2.23-46.55-2.205-69.86-2.508
			c-36.004-0.469-71.94,1.104-107.695,4.952c-23.734,2.556-47.464,5.276-70.929,10.592c-16.377,3.708-33.164,6.31-49.724,9.461
			c-34.148,6.498-67.848,15.248-101.376,24.429c-28.137,7.705-56.062,16.259-83.834,25.2c-26.206,8.436-52.553,16.25-79.218,23.101
			c-26.013,6.684-52.277,12.196-78.784,16.187c-19.95,3.005-39.947,5.796-60.232,6.942c-19.198,1.084-38.471,1.278-57.628,3.175
			c-8.043,0.796-15.863-1.559-23.832-1.59c-24.271-0.094-48.319-2.325-72.348-5.868c-32.568-4.803-64.374-12.578-95.491-23.042
			c-23.924-8.044-47.053-18.126-69.233-30.311c-36.952-20.301-70.438-44.872-98.826-76.396
			c-27.842-30.918-48.339-65.648-59.61-105.795c-7.468-26.598-9.715-53.528-5.066-80.763c7.03-41.171,25.417-76.587,55.013-106.199
			c8.971-8.976,18.833-16.842,28.451-25.052c16.425-14.021,32.306-28.684,48.331-43.17c26.424-23.888,52.492-48.159,78.011-73.015
			c22.408-21.824,44.475-43.977,65.922-66.762c23.054-24.492,45.365-49.611,65.952-76.203c26.132-33.753,50.825-68.409,63.97-109.76
			c6.485-20.398,9.494-41,5.026-62.366c-5.99-28.649-23.572-49.476-45.807-66.491c-15.499-11.859-32.729-21.345-50.896-28.928
			c-23.172-9.674-47.108-15.739-72.304-16.069c-24.578-0.321-49.158-0.631-73.485,4.021c-15.911,3.042-32.072,4.46-48.011,7.491
			c-17.538,3.335-35.223,6.017-52.933,8.294c-19.034,2.448-38.159,5.578-57.265,5.726c-25.186,0.195-50.181,3.781-75.625,1.239
			c-21.041-2.103-42.381-2.23-63.494-4.669c-12.506-1.444-25.125-2.343-37.472-4.665c-26.064-4.9-51.702-11.375-76.522-21.12
			c-26.385-10.359-49.585-25.464-70.223-44.566c-18.627-17.241-33.339-37.888-48.466-58.103
			c-18.356-24.53-37.718-48.008-61.323-67.889c-31.407-26.454-66.468-46.209-105.084-59.748
			c-37.05-12.992-75.67-19.247-114.2-25.771c-16.313-2.761-32.686-5.171-49.05-7.617c-15.065-2.251-30.166-4.276-45.234-6.512
			c-18.662-2.767-37.395-5.172-55.936-8.601c-22.768-4.208-45.624-7.975-68.207-13.21c-23.593-5.47-47.338-10.803-69.457-20.621
			c-14.928-6.627-29.551-11.066-45.891-9.356C11.375,18.475,6.665,18.022,2,17.998z"/>
		<path fill-rule="evenodd" clip-rule="evenodd" fill="#99CE7F" d="M2,17.998c4.665,0.024,9.375,0.477,13.986-0.005
			c16.34-1.71,30.963,2.729,45.891,9.356c22.119,9.818,45.864,15.15,69.457,20.621c22.583,5.235,45.439,9.002,68.207,13.21
			c18.542,3.429,37.274,5.833,55.936,8.601c15.068,2.235,30.168,4.26,45.234,6.512c16.364,2.446,32.738,4.856,49.05,7.617
			c38.529,6.524,77.149,12.779,114.2,25.771c38.616,13.539,73.677,33.294,105.084,59.748c23.605,19.881,42.967,43.359,61.323,67.889
			c15.127,20.215,29.838,40.862,48.466,58.103c20.638,19.102,43.838,34.207,70.223,44.566c24.821,9.746,50.458,16.22,76.522,21.12
			c12.347,2.321,24.966,3.22,37.472,4.665c21.113,2.439,42.453,2.566,63.494,4.669c25.444,2.542,50.44-1.044,75.625-1.239
			c19.106-0.147,38.231-3.278,57.265-5.726c17.71-2.277,35.395-4.958,52.933-8.294c15.938-3.031,32.1-4.449,48.011-7.491
			c24.327-4.652,48.907-4.342,73.485-4.021c25.195,0.33,49.132,6.396,72.304,16.069c18.167,7.583,35.397,17.069,50.896,28.928
			c22.234,17.015,39.816,37.842,45.807,66.491c4.468,21.367,1.459,41.968-5.026,62.366c-13.146,41.351-37.838,76.006-63.97,109.76
			c-20.587,26.591-42.898,51.71-65.952,76.203c-21.447,22.785-43.514,44.938-65.922,66.762
			c-25.519,24.855-51.586,49.127-78.011,73.015c-16.025,14.486-31.906,29.148-48.331,43.17c-9.617,8.21-19.48,16.076-28.451,25.052
			c-29.596,29.612-47.983,65.028-55.013,106.199c-4.649,27.234-2.402,54.165,5.066,80.763
			c11.271,40.146,31.768,74.877,59.61,105.795c28.388,31.523,61.874,56.095,98.826,76.396c22.181,12.185,45.31,22.267,69.233,30.311
			c31.117,10.464,62.923,18.239,95.491,23.042c24.029,3.543,48.077,5.774,72.348,5.868c7.969,0.031,15.789,2.386,23.832,1.59
			c19.157-1.896,38.43-2.091,57.628-3.175c20.285-1.146,40.282-3.938,60.232-6.942c26.507-3.99,52.771-9.503,78.784-16.187
			c26.665-6.851,53.012-14.665,79.218-23.101c27.772-8.941,55.697-17.495,83.834-25.2c33.528-9.181,67.228-17.931,101.376-24.429
			c16.56-3.151,33.347-5.753,49.724-9.461c23.465-5.315,47.194-8.036,70.929-10.592c35.755-3.849,71.691-5.421,107.695-4.952
			c23.311,0.303,46.62,0.277,69.86,2.508c64.987,6.238,128.401,18.354,186.886,49.291c32.838,17.371,60.972,40.167,83.807,69.704
			c18.829,24.355,43.83,40.53,72.646,50.962c27.778,10.057,56.572,14.875,85.978,15.913c27.306,0.964,54.637,0.739,81.832-2.266
			c39.031-4.312,77.631-11.216,115.831-20.312c72.31-17.213,142.709-40.408,211.799-67.702c1.531-0.605,3.149-0.992,4.729-1.482
			c0.078,4.329,0.223,8.658,0.223,12.987c0.012,119.619,0.049,239.238-0.031,358.857c-0.012,18.477,2.575,15.881-15.773,15.882
			c-1000.603,0.043-2001.205,0.037-3001.807,0.036C2,1140.524,2,579.26,2,17.998z"/>
		<path fill-rule="evenodd" clip-rule="evenodd" fill="#DDEED4" d="M2,1701.787c1000.602,0.001,2001.204,0.007,3001.807-0.036
			c18.349-0.001,15.762,2.595,15.773-15.882c0.08-119.619,0.043-239.238,0.031-358.857c0-4.329-0.145-8.658-0.223-12.987
			c0.744-0.063,1.488-0.126,2.232-0.189c0,129.984,0,259.968,0,389.951c-1003.541,0-2007.081,0.003-3010.623-0.123
			C8.072,1703.663,4.218,1705.969,2,1701.787z"/>
	</g>
</g>
</svg>
