<?xml version="1.0" encoding="utf-8"?>
<!-- Generator: Adobe Illustrator 16.0.0, SVG Export Plug-In . SVG Version: 6.00 Build 0)  -->
<!DOCTYPE svg PUBLIC "-//W3C//DTD SVG 1.1//EN" "http://www.w3.org/Graphics/SVG/1.1/DTD/svg11.dtd">
<svg version="1.1" id="Layer_1" xmlns="http://www.w3.org/2000/svg" xmlns:xlink="http://www.w3.org/1999/xlink" x="0px" y="0px"
	 width="668.98px" height="396.851px" viewBox="0 0 668.98 396.851" enable-background="new 0 0 668.98 396.851"
	 xml:space="preserve">
<g id="Layer_3">
	<path fill="#802428" d="M180.289,55.991v115.398c-0.338,7.622-1.742,12.56-4.231,14.796c-2.49,2.236-6.052,3.356-10.694,3.356
		h-12.429c-3.65,0-6.679-0.696-9.081-2.113c-2.405-1.408-3.983-3.522-4.729-6.343c-0.747-2.818-1.115-6.626-1.115-11.438V55.991
		c0-2.319-0.296-4.185-0.878-5.601c-0.573-1.399-2.447-2.105-5.591-2.105l-7.207,0.246c-3.488,0-6.221-0.498-8.211-1.489
		c-1.985-0.998-2.983-2.824-2.983-5.476V20.424c0-2.317,1.116-4.144,3.361-5.472c2.232-1.322,5.005-1.988,8.326-1.988h68.638
		c3.32,0,6.099,0.666,8.333,1.988c2.245,1.328,3.359,3.153,3.359,5.472v21.141c0,1.988-0.745,3.649-2.244,4.978
		c-1.484,1.326-4.469,1.988-8.95,1.988l-6.96-0.246c-2.324,0-4.02,0.33-5.099,0.99C180.824,49.94,180.289,52.181,180.289,55.991"/>
	<path fill="#802428" d="M226.797,12.961h48.491c15.087,0,26.774,4.603,35.068,13.805c8.283,9.2,12.438,23.253,12.438,42.157
		c0,7.958-0.37,14.297-1.118,19.023c-0.746,4.729-2.371,8.956-4.857,12.687c-2.479,3.726-5.309,6.921-8.452,9.575
		c-1.333,1.161-3.148,2.281-5.467,3.354c-2.324,1.082-3.898,2.033-4.726,2.858c-0.834,0.834-1.243,2.743-1.243,5.721
		c0,4.146,0.539,8.133,1.613,11.94c1.082,3.813,2.532,6.549,4.357,8.205c1.824,1.662,3.647,2.489,5.468,2.489
		c0.996,0,2.028-0.081,3.109-0.247c1.075-0.163,2.111-0.375,3.11-0.622c0.998-0.253,1.573-0.375,1.742-0.375
		c2.812,0,5.055,1.08,6.712,3.236c1.65,2.153,2.487,7.13,2.487,14.924l-0.247,19.642c0,2.989-1.037,5.313-3.111,6.966
		c-2.075,1.656-6.011,2.491-11.813,2.491c-5.473,0-10.864-1.164-16.167-3.488c-5.304-2.317-10.036-6.379-14.175-12.185
		c-4.146-5.802-7.134-12.346-8.955-19.642c-1.331-5.309-2.94-10.119-4.855-14.426c-1.905-4.312-3.847-7.501-5.836-9.577
		c-1.998-2.073-3.406-3.112-4.228-3.112c-1.333,0-1.988,1.994-1.988,5.968v35.321c0,4.806-0.376,8.62-1.128,11.437
		c-0.743,2.824-2.317,4.938-4.719,6.339c-2.411,1.415-5.433,2.117-9.077,2.117h-17.413c-2.158,0-4.102-0.661-5.843-1.987
		c-1.747-1.327-2.86-3.446-3.36-6.346c-0.5-2.896-0.745-6.753-0.745-11.558V32.858c0-4.799,0.37-8.613,1.115-11.44
		c0.751-2.817,2.326-4.928,4.73-6.336C220.12,13.671,223.146,12.961,226.797,12.961 M265.339,46.539
		c-3.642,0-6.468,0.458-8.45,1.367c-1.989,0.917-2.986,4.021-2.986,9.325l0.253,14.18l-0.254,12.431c0,3.16,0.457,5.557,1.366,7.213
		c0.909,1.662,4.272,2.486,10.07,2.486c9.121,0,13.679-7.376,13.679-22.131c0-4.812-0.538-9.243-1.613-13.312
		c-1.081-4.056-2.733-7.001-4.979-8.827C270.193,47.453,267.828,46.539,265.339,46.539"/>
	<path fill="#802428" d="M185.464,332.919v-20.695c0-2.48-0.546-4.342-1.625-5.58c-1.091-1.24-3.416-1.863-6.984-1.863
		c-2.637,0-4.725-0.582-6.271-1.746c-1.556-1.154-2.33-3.91-2.33-8.252v-2.328c0-7.746,0.268-12.789,0.812-15.117
		c0.548-2.324,1.702-3.713,3.494-4.184c1.777-0.466,4.065-0.697,6.86-0.697h33.253c2.173,0,4.381,0.434,6.633,1.281
		c2.239,0.855,3.37,3.525,3.37,8.018v72.568c0,7.744-2.603,13.483-7.789,17.202c-5.201,3.728-14.538,5.583-28.031,5.583
		c-12.711,0-23.917-1.936-33.601-5.811c-9.694-3.871-17.677-9.342-23.957-16.395c-6.278-7.063-11.127-15.744-14.538-26.053
		c-3.409-10.311-5.112-22.676-5.112-37.098c0-19.227,3.327-34.883,10.001-46.977c6.664-12.096,15.349-20.971,26.046-26.634
		c10.7-5.657,22.478-8.483,35.348-8.483c12.097,0,20.771,0.738,26.047,2.213c5.27,1.478,7.907,3.99,7.907,7.563v18.368
		c0,3.718-2.249,5.582-6.744,5.582c-2.015,0-5.782-0.512-11.281-1.518c-5.506-1.008-10.042-1.51-13.6-1.51
		c-6.671,0-12.523,2.209-17.563,6.625c-5.038,4.422-8.876,10.861-11.518,19.303c-2.634,8.459-3.943,16.711-3.943,24.771
		c0,11.325,1.12,20.97,3.37,28.956c2.245,7.986,5.427,13.88,9.535,17.675c4.102,3.806,8.874,5.692,14.298,5.692
		C182.823,343.387,185.464,339.896,185.464,332.919"/>
	<path fill="#802428" d="M465.814,210.824h34.885c15.193,0,27.012,2.912,35.467,8.723c8.443,5.814,14.334,14.304,17.676,25.469
		c3.33,11.167,4.99,27.293,4.99,48.373c0,13.641-0.613,25.195-1.854,34.652c-1.244,9.455-3.768,17.787-7.557,24.998
		c-3.809,7.211-9.697,12.832-17.676,16.859c-7.99,4.036-18.34,6.057-31.049,6.057H465.81c-3.408,0-6.24-0.666-8.494-1.985
		c-2.246-1.312-3.715-3.289-4.422-5.933c-0.697-2.629-1.045-6.195-1.045-10.695V229.43c0-4.488,0.348-8.06,1.045-10.695
		c0.707-2.637,2.176-4.612,4.422-5.935C459.57,211.49,462.402,210.824,465.814,210.824 M496.044,242.222
		c-1.561,0-2.762,0.39-3.607,1.16c-0.857,0.783-1.273,2.795-1.273,6.047l0.236,82.33c0,3.568,0.301,6.4,0.922,8.486
		c0.623,2.098,1.861,3.139,3.725,3.139c4.332,0,7.908-1.041,10.695-3.139c2.795-2.086,4.807-6.121,6.053-12.092
		c1.232-5.967,1.855-17.943,1.855-35.932c0-13.954-0.463-24.152-1.393-30.582c-0.936-6.432-2.717-11.277-5.354-14.538
		C505.259,243.85,501.306,242.222,496.044,242.222"/>
	<path fill="#802428" d="M332.102,70.633c0-5.367,0.261-15.474,2.009-23.595c1.737-8.122,4.885-14.924,9.442-20.396
		c4.564-5.472,10.736-9.326,18.531-11.562c7.793-2.243,16.328-3.364,25.615-3.364c8.951,0,16.623,0.958,23.008,2.866
		c6.379,1.907,11.842,4.895,16.41,8.957c4.563,4.062,8.041,10.112,10.451,18.152c2.393,8.041,3.598,10.119,3.598,27.697
		c0,0-0.199,27.178-3.35,36.464c-3.152,9.285-8.631,16.415-16.414,21.386c-7.795,4.977-18.816,7.458-33.082,7.458
		c-12.438,0-22.51-1.697-30.211-5.096c-7.717-3.398-13.43-8.081-17.162-14.05c-3.738-5.971-6.144-12.934-7.212-20.896
		C332.657,86.699,332.102,70.633,332.102,70.633 M386.457,46.539c-4.148,0-7.129,0.835-8.953,2.488
		c-1.824,1.661-2.863,3.568-3.113,5.717c-0.248,2.161-0.371,3.986-0.371,5.477l0.619,22.256c0,6.8,1.043,11.397,3.119,13.805
		c2.07,2.397,5.17,3.602,9.32,3.602c4.143,0,7.256-1.204,9.322-3.602c2.074-2.408,3.113-7.005,3.113-13.805l-0.623-22.256
		c0-4.313-0.58-7.42-1.742-9.329c-1.162-1.906-2.854-3.109-5.094-3.607C389.81,46.786,387.951,46.539,386.457,46.539"/>
	<path fill="#802428" d="M449.767,70.078c0-5.363,0.264-15.472,2.008-23.598c1.736-8.116,4.891-14.919,9.445-20.39
		c4.563-5.471,10.734-9.326,18.531-11.567c7.791-2.239,16.326-3.359,25.609-3.359c8.955,0,16.625,0.957,23.008,2.866
		c6.387,1.905,11.848,4.887,16.414,8.949c4.559,4.067,8.043,10.119,10.453,18.153c2.395,8.045,3.598,10.125,3.598,27.697
		c0,0-0.201,27.183-3.348,36.468c-3.154,9.286-8.639,16.416-16.418,21.388c-7.793,4.977-18.818,7.459-33.078,7.459
		c-12.438,0-22.51-1.696-30.213-5.096c-7.729-3.396-13.439-8.086-17.164-14.056c-3.734-5.967-6.141-12.927-7.211-20.886
		C450.326,86.147,449.767,70.078,449.767,70.078 M504.126,45.986c-4.15,0-7.137,0.833-8.961,2.482
		c-1.82,1.667-2.865,3.568-3.111,5.723c-0.25,2.16-0.363,3.979-0.363,5.477l0.615,22.254c0,6.794,1.039,11.397,3.117,13.803
		c2.074,2.401,5.172,3.603,9.322,3.603c4.143,0,7.254-1.202,9.322-3.603c2.072-2.407,3.109-7.009,3.109-13.803l-0.623-22.254
		c0-4.313-0.58-7.427-1.74-9.332c-1.16-1.903-2.855-3.106-5.102-3.605C507.472,46.233,505.617,45.986,504.126,45.986"/>
	<path fill="#802428" d="M229.628,264.492c0-5.013,0.241-14.465,1.867-22.063c1.63-7.594,4.571-13.95,8.838-19.068
		c4.266-5.115,10.035-8.729,17.327-10.816c7.284-2.088,15.271-3.141,23.951-3.141c8.373,0,15.546,0.896,21.517,2.682
		c5.969,1.781,11.087,4.574,15.345,8.369c4.271,3.803,7.527,9.457,9.773,16.98c2.241,7.518,3.375,9.458,3.375,25.896
		c0,0-0.194,25.426-3.14,34.104c-2.948,8.677-8.063,15.351-15.354,19.985c-7.291,4.654-17.596,6.982-30.93,6.982
		c-11.626,0-21.047-1.593-28.26-4.77c-7.206-3.172-12.554-7.553-16.047-13.135c-3.485-5.582-5.741-12.096-6.736-19.539
		C230.138,279.515,229.628,264.492,229.628,264.492 M280.446,241.964c-3.872,0-6.665,0.777-8.367,2.32
		c-1.709,1.559-2.676,3.34-2.905,5.354c-0.237,2.011-0.348,3.718-0.348,5.113l0.583,20.819c0,6.349,0.962,10.651,2.906,12.899
		c1.938,2.25,4.84,3.375,8.726,3.375c3.871,0,6.783-1.125,8.719-3.375c1.934-2.249,2.902-6.555,2.902-12.899l-0.587-20.819
		c0-4.027-0.538-6.937-1.623-8.728c-1.081-1.774-2.671-2.901-4.766-3.364C283.587,242.201,281.846,241.964,280.446,241.964"/>
	<path fill="#802428" d="M339.66,263.968c0-5.012,0.244-14.463,1.869-22.055c1.629-7.602,4.572-13.953,8.84-19.074
		c4.264-5.117,10.037-8.723,17.326-10.819c7.277-2.088,15.27-3.131,23.947-3.131c8.375,0,15.543,0.889,21.514,2.67
		c5.973,1.784,11.088,4.577,15.354,8.376c4.268,3.798,7.523,9.453,9.771,16.979c2.244,7.52,3.379,9.459,3.379,25.895
		c0,0-0.195,25.432-3.146,34.109c-2.943,8.68-8.063,15.346-15.354,19.988c-7.277,4.654-17.598,6.981-30.93,6.981
		c-11.631,0-21.043-1.587-28.262-4.769c-7.205-3.176-12.553-7.558-16.041-13.137c-3.492-5.583-5.738-12.095-6.742-19.547
		C340.175,279,339.66,263.968,339.66,263.968 M390.488,241.442c-3.883,0-6.678,0.781-8.373,2.328
		c-1.709,1.554-2.678,3.34-2.906,5.353c-0.236,2.016-0.35,3.725-0.35,5.117l0.588,20.813c0,6.356,0.959,10.653,2.895,12.901
		c1.939,2.252,4.844,3.381,8.732,3.381c3.867,0,6.781-1.129,8.715-3.381c1.938-2.252,2.906-6.545,2.906-12.901l-0.592-20.813
		c0-4.031-0.539-6.936-1.617-8.729c-1.086-1.777-2.676-2.904-4.771-3.365C393.623,241.679,391.873,241.442,390.488,241.442"/>
	<path fill="#802428" d="M355.769,356.97c0,5.563-2.246,10.582-5.889,14.226c-3.645,3.646-8.664,5.913-14.232,5.913
		c-11.147,0-20.133-9.007-20.133-20.139v-12.313c0-2.705,2.213-4.886,4.911-4.886h30.431c2.719,0,4.91,2.181,4.91,4.886v12.313
		H355.769z"/>
	<path fill="#802428" d="M423.222,168.534c0-12.32,9.982-22.304,22.303-22.304c12.311,0,22.299,9.984,22.299,22.304
		c0,12.321-9.988,22.301-22.299,22.301C433.201,190.835,423.222,180.854,423.222,168.534"/>
</g>
<g id="Layer_2">
</g>
</svg>
