<?xml version="1.0" encoding="utf-8"?>
<!-- Generator: Adobe Illustrator 16.0.0, SVG Export Plug-In . SVG Version: 6.00 Build 0)  -->
<!DOCTYPE svg PUBLIC "-//W3C//DTD SVG 1.1//EN" "http://www.w3.org/Graphics/SVG/1.1/DTD/svg11.dtd">
<svg version="1.1" id="Layer_1" xmlns="http://www.w3.org/2000/svg" xmlns:xlink="http://www.w3.org/1999/xlink" x="0px" y="0px"
	 width="668.98px" height="396.851px" viewBox="0 0 668.98 396.851" enable-background="new 0 0 668.98 396.851"
	 xml:space="preserve">
<g id="Layer_3">
	<path fill="#FFFFFF" d="M180.289,55.991v115.398c-0.338,7.622-1.742,12.56-4.231,14.796c-2.49,2.236-6.052,3.356-10.694,3.356
		h-12.429c-3.65,0-6.679-0.696-9.081-2.113c-2.405-1.408-3.983-3.522-4.729-6.343c-0.747-2.818-1.115-6.626-1.115-11.438V55.991
		c0-2.319-0.296-4.185-0.878-5.601c-0.573-1.399-2.447-2.105-5.591-2.105l-7.207,0.246c-3.488,0-6.221-0.498-8.211-1.489
		c-1.985-0.998-2.983-2.824-2.983-5.476V20.424c0-2.317,1.116-4.144,3.361-5.472c2.232-1.322,5.005-1.988,8.326-1.988h68.638
		c3.32,0,6.099,0.666,8.333,1.988c2.245,1.328,3.359,3.153,3.359,5.472v21.141c0,1.988-0.745,3.649-2.244,4.978
		c-1.484,1.326-4.469,1.988-8.95,1.988l-6.96-0.246c-2.324,0-4.02,0.33-5.099,0.99C180.824,49.94,180.289,52.181,180.289,55.991"/>
	<path fill="#FFFFFF" d="M226.797,12.961h48.491c15.087,0,26.774,4.603,35.068,13.805c8.286,9.2,12.438,23.253,12.438,42.157
		c0,7.958-0.37,14.297-1.118,19.023c-0.746,4.729-2.371,8.956-4.86,12.687c-2.478,3.726-5.306,6.921-8.452,9.575
		c-1.333,1.161-3.148,2.281-5.467,3.354c-2.324,1.082-3.898,2.033-4.726,2.858c-0.834,0.834-1.243,2.743-1.243,5.721
		c0,4.146,0.539,8.133,1.613,11.94c1.082,3.813,2.532,6.549,4.357,8.205c1.824,1.662,3.647,2.489,5.468,2.489
		c0.996,0,2.031-0.081,3.112-0.247c1.075-0.163,2.111-0.375,3.11-0.622c0.998-0.253,1.573-0.375,1.742-0.375
		c2.812,0,5.055,1.08,6.712,3.236c1.65,2.153,2.487,7.13,2.487,14.924l-0.247,19.642c0,2.989-1.037,5.313-3.111,6.966
		c-2.075,1.656-6.011,2.491-11.813,2.491c-5.47,0-10.864-1.164-16.166-3.488c-5.304-2.317-10.036-6.379-14.175-12.185
		c-4.146-5.802-7.134-12.346-8.955-19.642c-1.331-5.309-2.94-10.119-4.855-14.426c-1.905-4.312-3.847-7.501-5.836-9.577
		c-1.998-2.073-3.406-3.112-4.228-3.112c-1.333,0-1.988,1.994-1.988,5.968v35.321c0,4.806-0.376,8.62-1.128,11.437
		c-0.743,2.824-2.317,4.938-4.719,6.339c-2.411,1.415-5.433,2.117-9.077,2.117h-17.413c-2.158,0-4.102-0.661-5.843-1.987
		c-1.747-1.327-2.86-3.446-3.36-6.346c-0.5-2.896-0.745-6.753-0.745-11.558V32.858c0-4.799,0.37-8.613,1.115-11.44
		c0.751-2.817,2.326-4.928,4.73-6.336C220.12,13.671,223.146,12.961,226.797,12.961 M265.339,46.539
		c-3.642,0-6.468,0.458-8.45,1.367c-1.989,0.917-2.986,4.021-2.986,9.325l0.253,14.18l-0.254,12.431c0,3.16,0.457,5.557,1.366,7.213
		c0.909,1.662,4.272,2.486,10.07,2.486c9.121,0,13.679-7.376,13.679-22.131c0-4.812-0.538-9.243-1.613-13.312
		c-1.081-4.056-2.733-7.001-4.979-8.827C270.193,47.453,267.828,46.539,265.339,46.539"/>
	<path fill="#FFFFFF" d="M185.464,332.919v-20.695c0-2.481-0.546-4.341-1.625-5.58c-1.091-1.24-3.416-1.863-6.984-1.863
		c-2.637,0-4.725-0.583-6.271-1.746c-1.556-1.155-2.33-3.911-2.33-8.253v-2.327c0-7.746,0.268-12.79,0.812-15.117
		c0.548-2.327,1.702-3.713,3.494-4.184c1.777-0.466,4.065-0.698,6.86-0.698h33.253c2.173,0,4.381,0.432,6.633,1.282
		c2.239,0.855,3.37,3.525,3.37,8.018v72.567c0,7.745-2.603,13.484-7.789,17.203c-5.201,3.727-14.538,5.583-28.031,5.583
		c-12.711,0-23.917-1.935-33.601-5.811c-9.694-3.871-17.677-9.342-23.957-16.393c-6.278-7.06-11.127-15.745-14.538-26.052
		c-3.409-10.308-5.112-22.675-5.112-37.095c0-19.227,3.327-34.883,10.001-46.978c6.664-12.095,15.349-20.97,26.046-26.633
		c10.7-5.657,22.478-8.484,35.348-8.484c12.097,0,20.771,0.739,26.047,2.213c5.27,1.476,7.907,3.991,7.907,7.562v18.368
		c0,3.718-2.249,5.583-6.744,5.583c-2.015,0-5.782-0.51-11.281-1.517c-5.506-1.008-10.042-1.51-13.6-1.51
		c-6.671,0-12.523,2.209-17.563,6.626c-5.038,4.422-8.876,10.861-11.518,19.303c-2.634,8.458-3.943,16.71-3.943,24.768
		c0,11.326,1.12,20.97,3.37,28.956c2.245,7.988,5.427,13.88,9.535,17.675c4.102,3.803,8.874,5.694,14.298,5.694
		C182.823,343.387,185.464,339.896,185.464,332.919"/>
	<path fill="#FFFFFF" d="M465.813,210.823h34.885c15.195,0,27.013,2.913,35.467,8.723c8.443,5.815,14.334,14.302,17.676,25.467
		c3.33,11.167,4.991,27.293,4.991,48.373c0,13.641-0.614,25.197-1.854,34.655c-1.245,9.454-3.768,17.786-7.556,24.998
		c-3.81,7.211-9.697,12.831-17.676,16.859c-7.991,4.036-18.34,6.056-31.049,6.056h-34.885c-3.41,0-6.242-0.665-8.496-1.985
		c-2.246-1.312-3.713-3.291-4.42-5.932c-0.699-2.629-1.044-6.196-1.044-10.696V229.43c0-4.488,0.345-8.06,1.044-10.695
		c0.707-2.637,2.174-4.612,4.42-5.935C459.57,211.489,462.402,210.823,465.813,210.823 M496.045,242.222
		c-1.561,0-2.762,0.39-3.608,1.161c-0.858,0.782-1.274,2.795-1.274,6.046l0.236,82.331c0,3.567,0.302,6.4,0.923,8.486
		c0.623,2.098,1.861,3.139,3.725,3.139c4.332,0,7.907-1.041,10.694-3.139c2.795-2.086,4.808-6.121,6.053-12.09
		c1.232-5.967,1.856-17.945,1.856-35.932c0-13.954-0.464-24.152-1.392-30.582c-0.937-6.429-2.718-11.278-5.355-14.538
		C505.26,243.85,501.306,242.222,496.045,242.222"/>
	<path fill="#FFFFFF" d="M332.102,70.633c0-5.367,0.258-15.474,2.006-23.595c1.74-8.122,4.888-14.924,9.445-20.396
		c4.563-5.472,10.736-9.326,18.531-11.562c7.793-2.243,16.327-3.364,25.615-3.364c8.951,0,16.623,0.958,23.007,2.866
		c6.38,1.907,11.843,4.895,16.411,8.957c4.562,4.062,8.041,10.112,10.45,18.152c2.394,8.041,3.599,10.119,3.599,27.697
		c0,0-0.2,27.178-3.351,36.464c-3.152,9.285-8.63,16.415-16.414,21.386c-7.795,4.977-18.815,7.458-33.081,7.458
		c-12.437,0-22.51-1.697-30.212-5.096c-7.716-3.398-13.429-8.081-17.161-14.05c-3.738-5.971-6.144-12.934-7.215-20.896
		C332.657,86.699,332.102,70.633,332.102,70.633 M386.456,46.539c-4.148,0-7.129,0.835-8.953,2.488
		c-1.823,1.661-2.862,3.568-3.113,5.717c-0.247,2.161-0.37,3.986-0.37,5.477l0.619,22.256c0,6.8,1.043,11.397,3.119,13.805
		c2.07,2.397,5.169,3.602,9.319,3.602c4.144,0,7.256-1.204,9.322-3.602c2.075-2.408,3.114-7.005,3.114-13.805l-0.623-22.256
		c0-4.313-0.58-7.42-1.743-9.329c-1.161-1.906-2.853-3.109-5.093-3.607C389.811,46.786,387.95,46.539,386.456,46.539"/>
	<path fill="#FFFFFF" d="M449.768,70.078c0-5.363,0.263-15.472,2.007-23.598c1.736-8.116,4.89-14.919,9.446-20.39
		c4.562-5.471,10.734-9.326,18.531-11.567c7.791-2.239,16.325-3.359,25.609-3.359c8.954,0,16.624,0.957,23.007,2.866
		c6.387,1.905,11.849,4.887,16.415,8.949c4.558,4.067,8.043,10.119,10.453,18.153c2.396,8.045,3.597,10.125,3.597,27.697
		c0,0-0.201,27.183-3.348,36.468c-3.153,9.286-8.633,16.416-16.417,21.388c-7.793,4.977-18.818,7.459-33.079,7.459
		c-12.433,0-22.509-1.696-30.212-5.096c-7.724-3.396-13.435-8.086-17.165-14.056c-3.733-5.967-6.135-12.927-7.21-20.886
		C450.325,86.147,449.768,70.078,449.768,70.078 M504.126,45.986c-4.149,0-7.136,0.833-8.961,2.482
		c-1.82,1.667-2.865,3.568-3.111,5.723c-0.249,2.16-0.363,3.979-0.363,5.477l0.616,22.254c0,6.794,1.038,11.397,3.117,13.803
		c2.073,2.401,5.171,3.603,9.321,3.603c4.143,0,7.255-1.202,9.323-3.603c2.075-2.407,3.113-7.009,3.113-13.803l-0.623-22.254
		c0-4.313-0.58-7.427-1.745-9.332c-1.159-1.903-2.853-3.106-5.097-3.605C507.473,46.233,505.616,45.986,504.126,45.986"/>
	<path fill="#FFFFFF" d="M229.628,264.491c0-5.012,0.241-14.464,1.867-22.064c1.63-7.592,4.571-13.95,8.838-19.068
		c4.266-5.117,10.035-8.726,17.327-10.819c7.284-2.088,15.271-3.138,23.951-3.138c8.373,0,15.546,0.896,21.517,2.679
		c5.969,1.782,11.087,4.575,15.345,8.369c4.271,3.803,7.527,9.457,9.773,16.983c2.241,7.516,3.375,9.458,3.375,25.899
		c0,0-0.194,25.425-3.14,34.102c-2.948,8.677-8.063,15.348-15.352,19.988c-7.291,4.654-17.596,6.982-30.93,6.982
		c-11.626,0-21.047-1.593-28.26-4.77c-7.206-3.172-12.554-7.553-16.047-13.134c-3.485-5.582-5.741-12.094-6.736-19.54
		C230.138,279.515,229.628,264.491,229.628,264.491 M280.446,241.964c-3.872,0-6.665,0.778-8.367,2.321
		c-1.709,1.558-2.676,3.339-2.905,5.354c-0.237,2.011-0.348,3.718-0.348,5.115l0.583,20.819c0,6.348,0.962,10.652,2.906,12.9
		c1.938,2.25,4.84,3.375,8.726,3.375c3.871,0,6.783-1.125,8.719-3.375c1.934-2.249,2.902-6.553,2.902-12.9l-0.587-20.819
		c0-4.029-0.538-6.936-1.623-8.727c-1.081-1.776-2.671-2.902-4.766-3.365C283.587,242.2,281.846,241.964,280.446,241.964"/>
	<path fill="#FFFFFF" d="M339.659,263.969c0-5.013,0.244-14.463,1.87-22.056c1.629-7.599,4.573-13.953,8.84-19.074
		c4.263-5.117,10.036-8.723,17.325-10.819c7.279-2.088,15.271-3.131,23.948-3.131c8.375,0,15.543,0.889,21.514,2.67
		c5.973,1.784,11.088,4.577,15.354,8.376c4.263,3.798,7.523,9.453,9.767,16.979c2.244,7.517,3.378,9.458,3.378,25.892
		c0,0-0.195,25.431-3.141,34.112c-2.949,8.677-8.065,15.343-15.355,19.988c-7.276,4.654-17.597,6.981-30.929,6.981
		c-11.63,0-21.043-1.586-28.261-4.769c-7.205-3.173-12.554-7.555-16.041-13.134c-3.493-5.583-5.74-12.095-6.743-19.547
		C340.176,278.999,339.659,263.969,339.659,263.969 M390.487,241.442c-3.882,0-6.676,0.781-8.372,2.328
		c-1.709,1.554-2.678,3.34-2.906,5.353c-0.236,2.013-0.351,3.722-0.351,5.116l0.588,20.813c0,6.358,0.96,10.654,2.895,12.903
		c1.938,2.252,4.844,3.38,8.732,3.38c3.867,0,6.782-1.128,8.716-3.38c1.938-2.252,2.906-6.546,2.906-12.903l-0.591-20.813
		c0-4.03-0.54-6.935-1.619-8.728c-1.086-1.777-2.674-2.904-4.77-3.365C393.622,241.679,391.873,241.442,390.487,241.442"/>
	<path fill="#FFFFFF" d="M355.769,356.97c0,5.563-2.247,10.582-5.888,14.226c-3.646,3.646-8.665,5.913-14.233,5.913
		c-11.147,0-20.133-9.007-20.133-20.139v-12.312c0-2.705,2.213-4.884,4.911-4.884h30.431c2.719,0,4.91,2.179,4.91,4.884v12.312
		H355.769z"/>
	<path fill="#FFFFFF" d="M423.223,168.534c0-12.32,9.981-22.304,22.301-22.304c12.311,0,22.299,9.984,22.299,22.304
		c0,12.321-9.988,22.301-22.299,22.301C433.201,190.835,423.223,180.854,423.223,168.534"/>
</g>
<g id="Layer_2">
</g>
</svg>
